<?xml version="1.0" encoding="UTF-8"?>
<svg width="512px" height="512px" viewBox="0 0 512 512" version="1.1" xmlns="http://www.w3.org/2000/svg" xmlns:xlink="http://www.w3.org/1999/xlink">
    <!-- Generator: Sketch 64 (93537) - https://sketch.com -->
    <title>circle-check</title>
    <desc>Created with Sketch.</desc>
    <g id="Page-1" stroke="none" stroke-width="1" fill="none" fill-rule="evenodd">
        <g id="Story-Copy" transform="translate(-259.000000, -1272.000000)" fill="#22C55D" fill-rule="nonzero">
            <g id="circle-check" transform="translate(259.000000, 1272.000000)">
                <path d="M0,256 C0,114.6 114.6,0 256,0 C397.4,0 512,114.6 512,256 C512,397.4 397.4,512 256,512 C114.6,512 0,397.4 0,256 Z M371.8,211.8 C382.7,200.9 382.7,183.1 371.8,172.2 C360.9,161.3 343.1,161.3 332.2,172.2 L224,280.4 L179.8,236.2 C168.9,225.3 151.1,225.3 140.2,236.2 C129.3,247.1 129.3,264.9 140.2,275.8 L204.2,339.8 C215.1,350.7 232.9,350.7 243.8,339.8 L371.8,211.8 Z" id="Shape"></path>
            </g>
        </g>
    </g>
</svg>