<?xml version="1.0" encoding="UTF-8"?>
<svg width="512px" height="512px" viewBox="0 0 512 512" version="1.1" xmlns="http://www.w3.org/2000/svg" xmlns:xlink="http://www.w3.org/1999/xlink">
    <!-- Generator: Sketch 64 (93537) - https://sketch.com -->
    <title>circle-info</title>
    <desc>Created with Sketch.</desc>
    <g id="Page-1" stroke="none" stroke-width="1" fill="none" fill-rule="evenodd">
        <g id="Story" transform="translate(-294.000000, -1319.000000)" fill="#314B6F" fill-rule="nonzero">
            <g id="circle-info" transform="translate(294.000000, 1319.000000)">
                <path d="M256,0 C114.6,0 0,114.6 0,256 C0,397.4 114.6,512 256,512 C397.4,512 512,397.4 512,256 C512,114.6 397.4,0 256,0 Z M256,128 C273.67,128 288,142.33 288,160 C288,177.67 273.67,192 256,192 C238.33,192 224,177.7 224,160 C224,142.3 238.3,128 256,128 Z M296,384 L216,384 C202.8,384 192,373.3 192,360 C192,346.7 202.75,336 216,336 L232,336 L232,272 L224,272 C210.75,272 200,261.25 200,248 C200,234.75 210.8,224 224,224 L256,224 C269.25,224 280,234.75 280,248 L280,336 L296,336 C309.25,336 320,346.75 320,360 C320,373.25 309.3,384 296,384 Z" id="Shape"></path>
            </g>
        </g>
    </g>
</svg>