<?xml version="1.0" encoding="utf-8"?>
<!-- Generator: Adobe Illustrator 26.2.1, SVG Export Plug-In . SVG Version: 6.00 Build 0)  -->
<svg version="1.1" id="Layer_1" xmlns="http://www.w3.org/2000/svg" xmlns:xlink="http://www.w3.org/1999/xlink" x="0px" y="0px"
	 viewBox="0 0 700 700" style="enable-background:new 0 0 700 700;" xml:space="preserve">
<style type="text/css">
	.st0{fill:#314B6F;}
	.st1{fill:#FFFFFF;stroke:#314B6F;stroke-miterlimit:10;}
</style>
<circle class="st0" cx="350" cy="350" r="350"/>
<g>
	<path class="st1" d="M491.7,276.2c-7.9,0-15.4,1.9-22,5.1c-5.5-22.2-25.5-38.7-49.3-38.7c-10.2,0-19.7,3-27.6,8.2
		c-8.9-15-25.1-25-43.8-25c-7.3,0-14.2,1.6-20.5,4.4v-29.7c9.6,5.9,20,10.6,28.5,10.6c22.3,0,40.4-18.1,40.4-40.4
		c0-22.3-18.1-40.4-40.4-40.4c-8.5,0-18.9,4.8-28.5,10.6v-2.2c0-28.1-22.8-50.9-50.9-50.9s-50.9,22.8-50.9,50.9v2.2
		c-9.6-5.9-20-10.6-28.5-10.6c-22.3,0-40.4,18.1-40.4,40.4s18.1,40.4,40.4,40.4c8.5,0,18.9-4.8,28.5-10.6v108.6
		c-44.1,27.3-69.3,67.1-69.3,110.3c0,106.2,86.4,192.6,192.6,192.6s192.6-86.4,192.6-192.6v-92.4
		C542.6,299.1,519.8,276.2,491.7,276.2L491.7,276.2z M357,160.7c5.5,0,10,4.5,10,10c0,5.5-4.4,10-9.9,10c-3.2-0.4-10.6-4.5-18.8-10
		C346.5,165.1,353.9,161,357,160.7z M198,180.8c-5.5-0.1-9.9-4.6-9.9-10c0-5.5,4.5-10,9.8-10c3.2,0.3,10.6,4.4,18.9,10.1
		C208.6,176.3,201.2,180.4,198,180.8L198,180.8z M277.5,118.2c11.3,0,20.5,9.2,20.5,20.5v16.8h-41v-16.8
		C257,127.4,266.2,118.2,277.5,118.2z M512.2,419.5c0,89.5-72.8,162.3-162.3,162.3S187.7,509,187.7,419.5
		c0-27.1,13.9-52.8,38.9-73.2v45.9c0,8.4,6.8,15.2,15.2,15.2s15.2-6.8,15.2-15.2V185.9h41v206.3c0,8.4,6.8,15.2,15.2,15.2
		s15.2-6.8,15.2-15.2V276.7c0-11.3,9.2-20.5,20.5-20.5c11.3,0,20.5,9.2,20.5,20.5c0,0.1,0,0.1,0,0.2v115.3c0,8.4,6.8,15.2,15.2,15.2
		c8.4,0,15.2-6.8,15.2-15.2v-98.7c0-11.3,9.2-20.5,20.5-20.5c11.3,0,20.5,9.2,20.5,20.5v98.7c0,8.4,6.8,15.2,15.2,15.2
		c8.4,0,15.2-6.8,15.2-15.2v-65.1c0-11.3,9.2-20.5,20.5-20.5c11.3,0,20.5,9.2,20.5,20.5L512.2,419.5z"/>
</g>
</svg>
