<?xml version="1.0" encoding="UTF-8"?>
<svg width="512px" height="512px" viewBox="0 0 512 512" version="1.1" xmlns="http://www.w3.org/2000/svg" xmlns:xlink="http://www.w3.org/1999/xlink">
    <!-- Generator: Sketch 64 (93537) - https://sketch.com -->
    <title>Shape</title>
    <desc>Created with Sketch.</desc>
    <g id="Page-1" stroke="none" stroke-width="1" fill="none" fill-rule="evenodd">
        <g id="Story-Copy" transform="translate(-259.000000, -132.000000)" fill="#FACC15" fill-rule="nonzero">
            <g id="lightbulb" transform="translate(259.000000, 132.000000)">
                <path d="M206.058125,377.611273 C206.058125,381.251909 207.113675,384.80351 209.12945,387.838818 L219.092075,402.691596 C222.143638,407.244559 229.072137,410.947635 234.576575,410.947635 L270.422262,410.947635 C275.9081,410.947635 282.837762,407.246871 285.889325,402.691596 L295.817075,387.8446 C297.524788,385.278752 298.9256,380.692835 298.9256,377.611273 L299,354.947635 L206,354.947635 L206.058125,377.611273 Z M256,0 C397.4,0 512,114.6 512,256 C512,397.4 397.4,512 256,512 C114.6,512 0,397.4 0,256 C0,114.6 114.6,0 256,0 Z M252.150568,112.947635 C192.770455,113.130016 150,161.234219 150,214.859697 C150,240.69166 159.574432,264.241936 175.36875,282.262611 C184.995597,293.228681 200.026989,316.156149 205.780966,335.492287 C205.799195,335.637803 205.835594,335.792981 205.853764,335.947635 L299.15206,335.947635 C299.170288,335.793039 299.206688,335.646941 299.224858,335.492287 C304.975923,316.156149 320.010227,293.228681 329.637074,282.262611 C345.448864,264.74251 355,241.227159 355,214.859697 C355,158.696423 308.933239,112.775307 252.150568,112.947635 Z M252.625,169.06046 C226.767578,169.06046 205.75,189.95629 205.75,215.113961 C205.75,220.75566 201.53125,224.947635 196.375,224.947635 C191.21875,224.947635 187,220.75566 187,215.632136 C187,179.674307 216.443359,150.947635 252.625,150.947635 C257.807031,150.947635 262,155.115739 262,160.263135 C262,165.410531 257.78125,169.06046 252.625,169.06046 Z" id="Shape"></path>
            </g>
        </g>
    </g>
</svg>