<?xml version="1.0" encoding="UTF-8"?>
<svg width="512px" height="512px" viewBox="0 0 512 512" version="1.1" xmlns="http://www.w3.org/2000/svg" xmlns:xlink="http://www.w3.org/1999/xlink">
    <!-- Generator: Sketch 64 (93537) - https://sketch.com -->
    <title>circle-exclamation</title>
    <desc>Created with Sketch.</desc>
    <g id="Page-1" stroke="none" stroke-width="1" fill="none" fill-rule="evenodd">
        <g id="Story" transform="translate(-294.000000, -98.000000)" fill="#991C1C" fill-rule="nonzero">
            <g id="circle-exclamation" transform="translate(294.000000, 98.000000)">
                <path d="M256,0 C114.6,0 0,114.6 0,256 C0,397.4 114.6,512 256,512 C397.4,512 512,397.4 512,256 C512,114.6 397.4,0 256,0 Z M232,152 C232,138.8 242.8,128 256,128 C269.2,128 280,138.75 280,152 L280,280 C280,293.25 269.25,304 256,304 C242.75,304 232,293.3 232,280 L232,152 Z M256,400 C238.64,400 224.56,385.92 224.56,368.56 C224.56,351.2 238.63,337.12 256,337.12 C273.37,337.12 287.44,351.2 287.44,368.56 C287.4,385.9 273.4,400 256,400 Z" id="Shape"></path>
            </g>
        </g>
    </g>
</svg>